<svg width="351" height="326" viewBox="0 0 351 326" fill="none" xmlns="http://www.w3.org/2000/svg">
<path d="M34.3763 325.67C29.5063 325.67 25.4241 323.997 22.1297 320.652C18.8353 317.307 17.1881 313.161 17.1881 308.216V287.582C12.0317 281.764 7.8779 275.291 4.72674 268.164C1.57558 261.037 0 253.255 0 244.819V79.0034C0 54.8584 11.0291 37.186 33.0872 25.9862C40.0052 22.4736 48.1777 19.5146 57.6035 17.1037C78.232 11.8273 104.865 9.18646 137.505 9.18646C165.012 9.18646 188.145 10.8636 206.902 14.2181C221.745 16.8725 233.848 20.577 243.212 25.3316C264.411 36.0951 275.01 53.9857 275.01 79.0034V244.819C275.01 253.255 273.435 261.037 270.284 268.164C267.132 275.291 262.979 281.764 257.822 287.582V308.216C257.822 313.161 256.175 317.307 252.881 320.652C249.586 323.997 245.504 325.67 240.634 325.67H223.446C218.576 325.67 214.494 323.997 211.199 320.652C207.905 317.307 206.258 313.161 206.258 308.216V305.909H68.7526V308.216C68.7526 313.161 67.1054 317.307 63.811 320.652C60.5166 323.997 56.4344 325.67 51.5644 325.67H34.3763ZM34.3763 148.82H240.634V96.4577H34.3763V148.82ZM77.3466 253.546C84.5084 253.546 90.5958 251.001 95.6091 245.91C100.622 240.819 103.129 234.637 103.129 227.365C103.129 220.092 100.622 213.91 95.6091 208.819C90.5958 203.729 84.5084 201.183 77.3466 201.183C70.1849 201.183 64.0975 203.729 59.0842 208.819C54.071 213.91 51.5644 220.092 51.5644 227.365C51.5644 234.637 54.071 240.819 59.0842 245.91C64.0975 251.001 70.1849 253.546 77.3466 253.546ZM197.664 253.546C204.825 253.546 210.913 251.001 215.926 245.91C220.939 240.819 223.446 234.637 223.446 227.365C223.446 220.092 220.939 213.91 215.926 208.819C210.913 203.729 204.825 201.183 197.664 201.183C190.502 201.183 184.414 203.729 179.401 208.819C174.388 213.91 171.881 220.092 171.881 227.365C171.881 234.637 174.388 240.819 179.401 245.91C184.414 251.001 190.502 253.546 197.664 253.546ZM42.111 61.5492H234.618C230.321 56.6038 221.083 52.4584 206.902 49.113C192.722 45.7676 169.876 44.0949 138.365 44.0949C107.712 44.0949 85.2962 45.9131 71.116 49.5494C56.9357 53.1857 47.2674 57.1856 42.111 61.5492ZM68.7526 271.001H206.258C215.711 271.001 223.804 267.582 230.536 260.746C237.268 253.91 240.634 245.692 240.634 236.092V183.729H34.3763V236.092C34.3763 245.692 37.7423 253.91 44.4743 260.746C51.2063 267.582 59.2991 271.001 68.7526 271.001Z" fill="white"/>
<path d="M41.6813 0.654648L33.0872 25.9862C42.4514 21.2315 54.5548 17.5271 69.3972 14.8728L41.6813 0.654648Z" fill="white"/>
<path d="M243.212 25.3316L234.618 0L206.902 14.2181C221.745 16.8725 233.848 20.577 243.212 25.3316Z" fill="white"/>
<path d="M302.248 233.373C305.363 232.219 307.482 232.018 310.999 232.018C311.841 232.018 313.925 231.947 314.749 232.018C315.25 212.479 313.242 208.328 310.638 193.54C310.111 190.543 307.345 188.432 304.321 188.768C301.127 189.122 298.881 192.055 299.362 195.232C301.888 211.944 303.375 219.764 302.248 233.373Z" fill="white"/>
<path d="M310.999 289.485C326.877 289.485 339.75 276.62 339.75 260.751C339.75 254.743 337.904 249.166 334.749 244.554C333.123 242.177 331.148 240.056 328.898 238.265C327.602 237.233 326.214 236.31 324.749 235.511C323.167 234.648 321.494 233.93 319.749 233.373C317.751 232.736 316.909 232.204 314.749 232.018C313.925 231.947 311.841 232.018 310.999 232.018C307.482 232.018 305.363 232.219 302.248 233.373C291.3 237.433 282.247 248.397 282.247 260.751C282.247 276.62 295.12 289.485 310.999 289.485Z" fill="white"/>
<path d="M347.035 207.116C349.135 204.398 348.457 200.448 345.544 198.628C342.981 197.027 339.609 197.678 337.844 200.13C326.46 215.946 322.048 224.087 319.749 233.373C321.494 233.93 323.167 234.648 324.749 235.511C326.214 236.31 327.602 237.233 328.898 238.265C335.248 223.742 336.92 220.208 347.035 207.116Z" fill="white"/>
</svg>
